<svg width="40" height="40" viewBox="0 0 40 40" fill="none" xmlns="http://www.w3.org/2000/svg">
<circle cx="20" cy="20" r="20" fill="#FF7777"/>
<path d="M20.3565 6.9231C12.9493 6.9231 6.9231 12.9493 6.9231 20.3565C6.9231 27.7636 12.9493 33.7898 20.3565 33.7898C27.7636 33.7898 33.7898 27.7636 33.7898 20.3565C33.7898 12.9493 27.7636 6.9231 20.3565 6.9231ZM20.3565 31.3474C14.2961 31.3474 9.36553 26.4169 9.36553 20.3565C9.36553 14.2961 14.2961 9.36553 20.3565 9.36553C26.4169 9.36553 31.3474 14.2961 31.3474 20.3565C31.3474 26.4169 26.4169 31.3474 20.3565 31.3474Z" fill="white"/>
<path d="M17.0753 26.3093C18.8848 24.5 21.8287 24.4999 23.6382 26.3093C24.115 26.7862 24.8883 26.7862 25.3652 26.3093C25.8421 25.8323 25.8421 25.0591 25.3652 24.5822C23.9842 23.2012 22.1708 22.511 20.3567 22.511C18.5431 22.5109 16.7288 23.2015 15.3481 24.5822C14.8712 25.0591 14.8712 25.8323 15.3481 26.3093C15.8251 26.7863 16.5984 26.7862 17.0753 26.3093Z" fill="white"/>
<path d="M16.2972 18.9025C16.6009 18.5997 16.7743 18.1796 16.7743 17.7513C16.7743 17.3231 16.6009 16.903 16.2972 16.6001C15.9943 16.2973 15.5742 16.123 15.146 16.123C14.7169 16.123 14.2977 16.2973 13.9947 16.6001C13.6911 16.903 13.5177 17.3231 13.5177 17.7513C13.5177 18.1796 13.6911 18.5997 13.9947 18.9025C14.2977 19.2062 14.7177 19.3796 15.146 19.3796C15.5742 19.3796 15.9943 19.2062 16.2972 18.9025Z" fill="white"/>
<path d="M25.5669 16.123C25.1386 16.123 24.7185 16.2973 24.4156 16.6001C24.1128 16.903 23.9386 17.3223 23.9386 17.7513C23.9386 18.1804 24.1128 18.5997 24.4156 18.9025C24.7185 19.2062 25.1386 19.3796 25.5669 19.3796C25.9951 19.3796 26.4152 19.2062 26.7181 18.9025C27.0209 18.5997 27.1952 18.1804 27.1952 17.7513C27.1952 17.3231 27.0209 16.903 26.7181 16.6001C26.4152 16.2973 25.9951 16.123 25.5669 16.123Z" fill="white"/>
</svg>
