<svg width="40" height="40" viewBox="0 0 40 40" fill="none" xmlns="http://www.w3.org/2000/svg">
<circle cx="20" cy="20" r="20" fill="#FFB800"/>
<path d="M19.9231 5.9231C12.2035 5.9231 5.9231 12.2035 5.9231 19.9231C5.9231 27.6427 12.2035 33.9231 19.9231 33.9231C27.6427 33.9231 33.9231 27.6427 33.9231 19.9231C33.9231 12.2035 27.6427 5.9231 19.9231 5.9231ZM19.9231 31.3776C13.6071 31.3776 8.46855 26.2391 8.46855 19.9231C8.46855 13.6071 13.6071 8.46855 19.9231 8.46855C26.2391 8.46855 31.3776 13.6071 31.3776 19.9231C31.3776 26.2391 26.2391 31.3776 19.9231 31.3776Z" fill="white"/>
<path d="M15.6926 18.408C16.0091 18.0923 16.1898 17.6545 16.1898 17.2082C16.1898 16.7619 16.0091 16.3241 15.6926 16.0084C15.377 15.6928 14.9392 15.5112 14.4929 15.5112C14.0456 15.5112 13.6087 15.6928 13.293 16.0084C12.9766 16.3241 12.7959 16.7619 12.7959 17.2082C12.7959 17.6545 12.9766 18.0923 13.293 18.408C13.6087 18.7244 14.0466 18.9052 14.4929 18.9052C14.9392 18.9052 15.377 18.7244 15.6926 18.408Z" fill="white"/>
<path d="M25.3532 15.5112C24.9069 15.5112 24.4691 15.6928 24.1534 16.0084C23.8378 16.3241 23.6562 16.761 23.6562 17.2082C23.6562 17.6554 23.8378 18.0923 24.1534 18.408C24.4691 18.7244 24.9069 18.9052 25.3532 18.9052C25.7995 18.9052 26.2373 18.7244 26.553 18.408C26.8686 18.0923 27.0502 17.6554 27.0502 17.2082C27.0502 16.7619 26.8685 16.3241 26.553 16.0084C26.2373 15.6928 25.7995 15.5112 25.3532 15.5112Z" fill="white"/>
<path d="M13.3334 23.3333H26.6667" stroke="white" stroke-width="2" stroke-linecap="round"/>
</svg>
