<svg width="1440" height="1024" viewBox="0 0 1440 1024" fill="none" xmlns="http://www.w3.org/2000/svg">
<g clip-path="url(#clip0_126_35)">
<rect width="1440" height="1024" fill="#FFEEEE"/>
<path d="M363 958.5C363 1120.6 231.596 1252 69.5 1252C-92.5956 1252 -224 1120.6 -224 958.5C-224 796.404 -92.5956 665 69.5 665C231.596 665 363 796.404 363 958.5Z" fill="white" fill-opacity="0.5"/>
<path d="M1608 1001.5C1608 1163.6 1476.6 1295 1314.5 1295C1152.4 1295 1021 1163.6 1021 1001.5C1021 839.404 1152.4 708 1314.5 708C1476.6 708 1608 839.404 1608 1001.5Z" fill="white" fill-opacity="0.5"/>
<path d="M1360 871C1360 1065.4 1202.4 1223 1008 1223C813.596 1223 656 1065.4 656 871C656 676.596 813.596 519 1008 519C1202.4 519 1360 676.596 1360 871Z" fill="white" fill-opacity="0.7"/>
<path d="M1639 603C1639 732.787 1533.79 838 1404 838C1274.21 838 1169 732.787 1169 603C1169 473.213 1274.21 368 1404 368C1533.79 368 1639 473.213 1639 603Z" fill="white" fill-opacity="0.6"/>
<path d="M304 151C304 280.787 198.787 386 69 386C-60.7869 386 -166 280.787 -166 151C-166 21.2131 -60.7869 -84 69 -84C198.787 -84 304 21.2131 304 151Z" fill="white" fill-opacity="0.5"/>
<path d="M1789 -66.5C1789 95.5956 1657.6 227 1495.5 227C1333.4 227 1202 95.5956 1202 -66.5C1202 -228.596 1333.4 -360 1495.5 -360C1657.6 -360 1789 -228.596 1789 -66.5Z" fill="white" fill-opacity="0.6"/>
<path d="M522 664.5C522 768.053 438.053 852 334.5 852C230.947 852 147 768.053 147 664.5C147 560.947 230.947 477 334.5 477C438.053 477 522 560.947 522 664.5Z" fill="white" fill-opacity="0.7"/>
</g>
<defs>
<clipPath id="clip0_126_35">
<rect width="1440" height="1024" fill="white"/>
</clipPath>
</defs>
</svg>
