<svg width="12" height="20" viewBox="0 0 12 20" fill="none" xmlns="http://www.w3.org/2000/svg">
<path d="M10.6667 11.25C10.6667 13.125 8.66667 15 6.66667 15H5.33333C3.33333 15 1.33333 13.125 1.33333 11.25V7.5H0V11.25C0 13.75 2.66667 16.25 5.33333 16.25V18.75H1.33333V20H10.6667V18.75H6.66667V16.25C9.33333 16.25 12 13.75 12 11.25V7.5H10.6667V11.25Z" fill="#FF7777"/>
<path d="M6.66008 13.75C8.13741 13.75 9.33341 12.625 9.33341 11.26V2.49C9.33341 1.115 8.14141 0 6.66008 0H5.34008C3.86275 0 2.66675 1.125 2.66675 2.49V11.26C2.66675 12.635 3.85875 13.75 5.34008 13.75H6.66008Z" fill="#FF7777"/>
</svg>
