<svg width="20" height="20" viewBox="0 0 20 20" fill="none" xmlns="http://www.w3.org/2000/svg">
<g clip-path="url(#clip0_111_705)">
<path fill-rule="evenodd" clip-rule="evenodd" d="M15.9175 12.0166C16.1383 11.3674 16.2506 10.6862 16.25 10.0004V8.75039C16.25 8.58463 16.1841 8.42565 16.0669 8.30844C15.9497 8.19123 15.7908 8.12539 15.625 8.12539C15.4592 8.12539 15.3003 8.19123 15.1831 8.30844C15.0658 8.42565 15 8.58463 15 8.75039V10.0004C15 10.3429 14.9662 10.6754 14.9 10.9991L15.9175 12.0166ZM12.765 14.1666C12.0117 14.6666 11.1369 14.953 10.2337 14.9953C9.33051 15.0375 8.43278 14.8341 7.63605 14.4066C6.83933 13.9791 6.17343 13.3436 5.70924 12.5677C5.24504 11.7918 4.99993 10.9045 5 10.0004V8.75039C5 8.58463 4.93415 8.42565 4.81694 8.30844C4.69973 8.19123 4.54076 8.12539 4.375 8.12539C4.20923 8.12539 4.05026 8.19123 3.93305 8.30844C3.81584 8.42565 3.75 8.58463 3.75 8.75039V10.0004C3.74998 11.5498 4.32548 13.044 5.36485 14.1931C6.40421 15.3421 7.83335 16.0642 9.375 16.2191V18.7504H5.625C5.45924 18.7504 5.30026 18.8162 5.18305 18.9334C5.06584 19.0507 5 19.2096 5 19.3754C5 19.5411 5.06584 19.7001 5.18305 19.8173C5.30026 19.9345 5.45924 20.0004 5.625 20.0004H14.375C14.5408 20.0004 14.6997 19.9345 14.8169 19.8173C14.9341 19.7001 15 19.5411 15 19.3754C15 19.2096 14.9341 19.0507 14.8169 18.9334C14.6997 18.8162 14.5408 18.7504 14.375 18.7504H10.625V16.2191C11.7219 16.1107 12.7702 15.7125 13.6625 15.0654L12.765 14.1666ZM13.75 9.85039V3.75039C13.7507 2.86107 13.4353 2.00046 12.8601 1.32219C12.2849 0.643925 11.4874 0.192143 10.6099 0.0474998C9.73245 -0.0971434 8.83213 0.0747667 8.06968 0.532541C7.30724 0.990316 6.7323 1.70416 6.4475 2.54664L13.75 9.84914V9.85039ZM6.25 7.65039L11.8575 13.2579C11.2872 13.5831 10.6414 13.7529 9.9849 13.7502C9.32836 13.7476 8.68403 13.5726 8.11632 13.2428C7.54862 12.913 7.07745 12.44 6.74993 11.871C6.42241 11.302 6.25002 10.6569 6.25 10.0004V7.65164V7.65039ZM17.0575 16.6929L2.0575 1.69289L2.9425 0.807885L17.9425 15.8079L17.0575 16.6916V16.6929Z" fill="#FF7777"/>
</g>
<defs>
<clipPath id="clip0_111_705">
<rect width="20" height="20" fill="white"/>
</clipPath>
</defs>
</svg>
