<svg width="38" height="38" viewBox="0 0 38 38" fill="none" xmlns="http://www.w3.org/2000/svg">
<path d="M19 0C8.5234 0 0 8.5234 0 19C0 29.4766 8.5234 38 19 38C29.4766 38 38 29.4766 38 19C38 8.5234 29.4766 0 19 0ZM19 34.5455C10.4282 34.5455 3.45455 27.5718 3.45455 19C3.45455 10.4282 10.4282 3.45455 19 3.45455C27.5718 3.45455 34.5455 10.4282 34.5455 19C34.5455 27.5718 27.5718 34.5455 19 34.5455Z" fill="#FF7777"/>
<path d="M14.3592 27.4197C16.9186 24.8605 21.0825 24.8604 23.6417 27.4196C24.3161 28.0941 25.4099 28.0941 26.0844 27.4196C26.759 26.745 26.759 25.6514 26.0844 24.9769C24.1311 23.0235 21.5663 22.0473 19.0004 22.0473C16.4353 22.0473 13.8693 23.024 11.9164 24.9769C11.2418 25.6513 11.2418 26.745 11.9164 27.4196C12.5911 28.0942 13.6848 28.0941 14.3592 27.4197Z" fill="#FF7777"/>
<path d="M13.2587 16.9435C13.6882 16.5151 13.9335 15.9209 13.9335 15.3152C13.9335 14.7095 13.6882 14.1154 13.2587 13.687C12.8303 13.2586 12.2361 13.0122 11.6304 13.0122C11.0235 13.0122 10.4305 13.2586 10.0021 13.687C9.57267 14.1154 9.32739 14.7095 9.32739 15.3152C9.32739 15.9209 9.57267 16.5151 10.0021 16.9435C10.4305 17.373 11.0247 17.6183 11.6304 17.6183C12.2361 17.6183 12.8303 17.373 13.2587 16.9435Z" fill="#FF7777"/>
<path d="M26.3697 13.0122C25.764 13.0122 25.1698 13.2586 24.7413 13.687C24.3131 14.1154 24.0667 14.7084 24.0667 15.3152C24.0667 15.9221 24.3131 16.5151 24.7413 16.9435C25.1698 17.373 25.764 17.6183 26.3697 17.6183C26.9754 17.6183 27.5696 17.373 27.9979 16.9435C28.4263 16.5151 28.6727 15.9221 28.6727 15.3152C28.6727 14.7095 28.4262 14.1154 27.9979 13.687C27.5696 13.2586 26.9754 13.0122 26.3697 13.0122Z" fill="#FF7777"/>
</svg>
