<svg width="38" height="38" viewBox="0 0 38 38" fill="none" xmlns="http://www.w3.org/2000/svg">
<path d="M19 0C8.5234 0 0 8.5234 0 19C0 29.4766 8.5234 38 19 38C29.4766 38 38 29.4766 38 19C38 8.5234 29.4766 0 19 0ZM19 34.5455C10.4282 34.5455 3.45455 27.5718 3.45455 19C3.45455 10.4282 10.4282 3.45455 19 3.45455C27.5718 3.45455 34.5455 10.4282 34.5455 19C34.5455 27.5718 27.5718 34.5455 19 34.5455Z" fill="#FFA8A8"/>
<path d="M19 0C8.5234 0 0 8.5234 0 19C0 29.4766 8.5234 38 19 38C29.4766 38 38 29.4766 38 19C38 8.5234 29.4766 0 19 0ZM19 34.5455C10.4282 34.5455 3.45455 27.5718 3.45455 19C3.45455 10.4282 10.4282 3.45455 19 3.45455C27.5718 3.45455 34.5455 10.4282 34.5455 19C34.5455 27.5718 27.5718 34.5455 19 34.5455Z" fill="url(#paint0_linear_111_41)"/>
<path d="M23.6415 23.6414C21.0822 26.2005 16.9183 26.2006 14.359 23.6415C13.6846 22.9669 12.5909 22.9669 11.9163 23.6415C11.2418 24.316 11.2418 25.4096 11.9163 26.0842C13.8696 28.0375 16.4344 29.0138 19.0003 29.0138C21.5654 29.0138 24.1315 28.037 26.0843 26.0842C26.7589 25.4097 26.7589 24.316 26.0843 23.6415C25.4097 22.9668 24.316 22.9669 23.6415 23.6414Z" fill="#FFA8A8"/>
<path d="M23.6415 23.6414C21.0822 26.2005 16.9183 26.2006 14.359 23.6415C13.6846 22.9669 12.5909 22.9669 11.9163 23.6415C11.2418 24.316 11.2418 25.4096 11.9163 26.0842C13.8696 28.0375 16.4344 29.0138 19.0003 29.0138C21.5654 29.0138 24.1315 28.037 26.0843 26.0842C26.7589 25.4097 26.7589 24.316 26.0843 23.6415C25.4097 22.9668 24.316 22.9669 23.6415 23.6414Z" fill="url(#paint1_linear_111_41)"/>
<path d="M13.2587 16.9435C13.6882 16.5151 13.9335 15.9209 13.9335 15.3152C13.9335 14.7095 13.6882 14.1154 13.2587 13.687C12.8303 13.2586 12.2361 13.0122 11.6304 13.0122C11.0235 13.0122 10.4305 13.2586 10.0021 13.687C9.57267 14.1154 9.32739 14.7095 9.32739 15.3152C9.32739 15.9209 9.57267 16.5151 10.0021 16.9435C10.4305 17.373 11.0247 17.6183 11.6304 17.6183C12.2361 17.6183 12.8303 17.373 13.2587 16.9435Z" fill="#FFA8A8"/>
<path d="M13.2587 16.9435C13.6882 16.5151 13.9335 15.9209 13.9335 15.3152C13.9335 14.7095 13.6882 14.1154 13.2587 13.687C12.8303 13.2586 12.2361 13.0122 11.6304 13.0122C11.0235 13.0122 10.4305 13.2586 10.0021 13.687C9.57267 14.1154 9.32739 14.7095 9.32739 15.3152C9.32739 15.9209 9.57267 16.5151 10.0021 16.9435C10.4305 17.373 11.0247 17.6183 11.6304 17.6183C12.2361 17.6183 12.8303 17.373 13.2587 16.9435Z" fill="url(#paint2_linear_111_41)"/>
<path d="M26.3697 13.0122C25.764 13.0122 25.1698 13.2586 24.7413 13.687C24.3131 14.1154 24.0667 14.7084 24.0667 15.3152C24.0667 15.9221 24.3131 16.5151 24.7413 16.9435C25.1698 17.373 25.764 17.6183 26.3697 17.6183C26.9754 17.6183 27.5696 17.373 27.9979 16.9435C28.4263 16.5151 28.6727 15.9221 28.6727 15.3152C28.6727 14.7095 28.4262 14.1154 27.9979 13.687C27.5696 13.2586 26.9754 13.0122 26.3697 13.0122Z" fill="#FFA8A8"/>
<path d="M26.3697 13.0122C25.764 13.0122 25.1698 13.2586 24.7413 13.687C24.3131 14.1154 24.0667 14.7084 24.0667 15.3152C24.0667 15.9221 24.3131 16.5151 24.7413 16.9435C25.1698 17.373 25.764 17.6183 26.3697 17.6183C26.9754 17.6183 27.5696 17.373 27.9979 16.9435C28.4263 16.5151 28.6727 15.9221 28.6727 15.3152C28.6727 14.7095 28.4262 14.1154 27.9979 13.687C27.5696 13.2586 26.9754 13.0122 26.3697 13.0122Z" fill="url(#paint3_linear_111_41)"/>
<defs>
<linearGradient id="paint0_linear_111_41" x1="28.2144" y1="3.54108" x2="1.67535" y2="41.9599" gradientUnits="userSpaceOnUse">
<stop stop-color="#FF7777"/>
<stop offset="1" stop-color="#F5C6A5"/>
</linearGradient>
<linearGradient id="paint1_linear_111_41" x1="22.6812" y1="23.6833" x2="20.4897" y2="31.876" gradientUnits="userSpaceOnUse">
<stop stop-color="#FF7777"/>
<stop offset="1" stop-color="#F5C6A5"/>
</linearGradient>
<linearGradient id="paint2_linear_111_41" x1="12.7473" y1="13.4414" x2="9.53047" y2="18.0983" gradientUnits="userSpaceOnUse">
<stop stop-color="#FF7777"/>
<stop offset="1" stop-color="#F5C6A5"/>
</linearGradient>
<linearGradient id="paint3_linear_111_41" x1="27.4866" y1="13.4414" x2="24.2697" y2="18.0983" gradientUnits="userSpaceOnUse">
<stop stop-color="#FF7777"/>
<stop offset="1" stop-color="#F5C6A5"/>
</linearGradient>
</defs>
</svg>
