<svg width="84" height="23" viewBox="0 0 84 23" fill="none" xmlns="http://www.w3.org/2000/svg">
<path d="M8.29785 13.3721H3.28809V22H0.460938V0.671875H7.52148C9.92383 0.671875 11.7695 1.21875 13.0586 2.3125C14.3574 3.40625 15.0068 4.99805 15.0068 7.08789C15.0068 8.41602 14.6455 9.57324 13.9229 10.5596C13.21 11.5459 12.2139 12.2832 10.9346 12.7715L15.9443 21.8242V22H12.9268L8.29785 13.3721ZM3.28809 11.0723H7.60938C9.00586 11.0723 10.1143 10.7109 10.9346 9.98828C11.7646 9.26562 12.1797 8.29883 12.1797 7.08789C12.1797 5.76953 11.7842 4.75879 10.9932 4.05566C10.2119 3.35254 9.0791 2.99609 7.59473 2.98633H3.28809V11.0723Z" fill="#FF7C7A"/>
<path d="M17.8193 13.9287C17.8193 12.376 18.1221 10.9795 18.7275 9.73926C19.3428 8.49902 20.1924 7.54199 21.2764 6.86816C22.3701 6.19434 23.6152 5.85742 25.0117 5.85742C27.1699 5.85742 28.9131 6.60449 30.2412 8.09863C31.5791 9.59277 32.248 11.5801 32.248 14.0605V14.251C32.248 15.7939 31.9502 17.1807 31.3545 18.4111C30.7686 19.6318 29.9238 20.584 28.8203 21.2676C27.7266 21.9512 26.4668 22.293 25.041 22.293C22.8926 22.293 21.1494 21.5459 19.8115 20.0518C18.4834 18.5576 17.8193 16.5801 17.8193 14.1191V13.9287ZM20.5439 14.251C20.5439 16.0088 20.9492 17.4199 21.7598 18.4844C22.5801 19.5488 23.6738 20.0811 25.041 20.0811C26.418 20.0811 27.5117 19.5439 28.3223 18.4697C29.1328 17.3857 29.5381 15.8721 29.5381 13.9287C29.5381 12.1904 29.123 10.7842 28.293 9.70996C27.4727 8.62598 26.3789 8.08398 25.0117 8.08398C23.6738 8.08398 22.5947 8.61621 21.7744 9.68066C20.9541 10.7451 20.5439 12.2686 20.5439 14.251Z" fill="#FF7C7A"/>
<path d="M38.1953 6.15039L38.2686 7.9082C39.4307 6.54102 40.998 5.85742 42.9707 5.85742C45.1875 5.85742 46.6963 6.70703 47.4971 8.40625C48.0244 7.64453 48.708 7.0293 49.5479 6.56055C50.3975 6.0918 51.3984 5.85742 52.5508 5.85742C56.0273 5.85742 57.7949 7.69824 57.8535 11.3799V22H55.1436V11.541C55.1436 10.4082 54.8848 9.56348 54.3672 9.00684C53.8496 8.44043 52.9805 8.15723 51.7598 8.15723C50.7539 8.15723 49.9189 8.45996 49.2549 9.06543C48.5908 9.66113 48.2051 10.4668 48.0977 11.4824V22H45.373V11.6143C45.373 9.30957 44.2451 8.15723 41.9893 8.15723C40.2119 8.15723 38.9961 8.91406 38.3418 10.4277V22H35.6318V6.15039H38.1953Z" fill="#FF7C7A"/>
<path d="M66.0127 0.671875L72.9854 18.0742L79.958 0.671875H83.6055V22H80.793V13.6943L81.0566 4.72949L74.0547 22H71.9014L64.9141 4.77344L65.1924 13.6943V22H62.3799V0.671875H66.0127Z" fill="#FF7C7A"/>
</svg>
